PathFileType	4	(X/Y/Z)	1_2_rein_62_p0_0-446_filt_butterworth.trc
DataRate	CameraRate	NumFrames	NumMarkers	Units	OrigDataRate	OrigDataStartFrame	OrigNumFrames
60.0	60.0	4	27	m	60.0	0	446
Frame#	Time	RHip			RKnee			RAnkle			RBigToe			RSmallToe			RHeel			LHip			LKnee			LAnkle			LBigToe			LSmallToe			LHeel			Neck			Head			Nose			RShoulder			RElbow			RWrist			RThumb			RIndex			RPinky			LShoulder			LElbow			LWrist			LThumb			LIndex			LPinky			
		X1	Y1	Z1	X2	Y2	Z2	X3	Y3	Z3	X4	Y4	Z4	X5	Y5	Z5	X6	Y6	Z6	X7	Y7	Z7	X8	Y8	Z8	X9	Y9	Z9	X10	Y10	Z10	X11	Y11	Z11	X12	Y12	Z12	X13	Y13	Z13	X14	Y14	Z14	X15	Y15	Z15	X16	Y16	Z16	X17	Y17	Z17	X18	Y18	Z18	X19	Y19	Z19	X20	Y20	Z20	X21	Y21	Z21	X22	Y22	Z22	X23	Y23	Z23	X24	Y24	Z24	X25	Y25	Z25	X26	Y26	Z26	X27	Y27	Z27	
0	0.0	0.3837884114339495	0.22373956976325904	1.105305557645769	0.37458317790308043	0.2903422479065575	1.5343420467896014	0.373385620355453	0.4166146141429031	1.9764270316247816	0.3510666555625743	0.19717499376936848	2.005120496016498	0.42406067621424837	0.27369700925219054	2.0365653849783665	0.352968561676215	0.46148632510401993	2.045917089870096	0.14987871418556445	0.2148440263050148	1.1244971804037396	0.17575238285590558	0.2724145133646525	1.552543482001463	0.2007350248129264	0.3912736223240577	1.9694525822837443	0.1943075566811	0.17932192041250575	2.00524965017289	0.13379783568845163	0.23959441526091332	1.991737860259016	0.21831691149908528	0.4556621891443651	2.0524713838496726	0.2623902187689132	0.17179047811306636	0.42899573719135603	0.26309677917139346	0.0904304605018383	0.16799636689189087	0.27135938383633285	0.07038583173929142	0.3076401024678454	0.4533334995151191	0.1738062753242141	0.5353227791440086	0.48926874133348164	0.14776412278857184	0.838058749299332	0.33620065762170076	0.10133017465748298	1.0649410272061224	0.2948786640667171	0.05859606884734349	1.1224780308633888	0.2560485602167506	0.08812065099958992	1.1558702802314247	0.24819287608706259	0.09486328156112145	1.1664717473863844	0.08090377208030997	0.18333306056922366	0.5424835220813051	0.07034476951551856	0.12458669682249637	0.8214939802002914	0.22116805118859795	0.07930727313565443	1.0399589593808027	0.32510096891562557	0.06967161113485693	1.0903549716564611	0.33729858764848675	0.07275717055391441	1.140394076437246	0.29208815907050484	0.1212624299964308	1.1677573232939582
1	0.0166666666666666	0.3862668916311668	0.21694134562586895	1.1017323379722752	0.3750433929568151	0.2896514505894311	1.5353571746452317	0.37437247009291774	0.41092561012324774	1.9723138176395782	0.351072847307311	0.19713019898932393	2.0052636744032357	0.42415360842699207	0.2725979048411898	2.033734122784816	0.35838944712654475	0.4715558095516056	2.0501315690117097	0.15421600143472158	0.2065006901562702	1.1221374196003675	0.17841165058288008	0.27297280024433734	1.5526248201651727	0.19775617322305294	0.4019360992073059	1.9729072257774356	0.19246621027232702	0.1911932037444759	2.011920864643171	0.13377848830649644	0.23990415575719604	1.9920652272000599	0.2161864425192051	0.45706309620649754	2.053479194716527	0.26246226093734504	0.17127291863598415	0.43125655084665615	0.26342026661260753	0.08965537151802234	0.16915811034656386	0.27134257511133003	0.07031807232422507	0.30763794923210347	0.45329481827379214	0.17380957238721637	0.5353096232833272	0.4901159012286031	0.14200823892839082	0.8351591326435245	0.3361955226497697	0.10105683169982171	1.0652542735252015	0.29077481581019976	0.07524811653940176	1.134388717244628	0.2558503444880298	0.09912757643898873	1.1630428704840516	0.2517239504713381	0.09070804715415665	1.1643722356359176	0.08053267142252296	0.18427919839151313	0.540539753129626	0.07278527143157888	0.11718092125756502	0.8166691789653996	0.22130220789501276	0.07877323775787635	1.0409621529872675	0.32536909850471124	0.06814880498846619	1.0955353488329853	0.3346771815110515	0.0726966156516225	1.1425008653974549	0.2913140720966142	0.13171896951221823	1.168184599363734
2	0.0333333333333333	0.3888956053613252	0.21125186820709618	1.1001191004700064	0.3754033600998016	0.28913654112649206	1.5363495127090878	0.3749873255769296	0.4051059824954853	1.9690509176261337	0.3510798938362959	0.19712688524137464	2.0053117753327987	0.4247353573916868	0.2692062666134556	2.0298452835180294	0.36174839978715473	0.47778679201889906	2.0524567688855195	0.15742418766203842	0.20175848094258958	1.1218106109091566	0.18028404925201458	0.2729587015990253	1.554014735490089	0.1967062088799257	0.40812077323651114	1.9757112427552157	0.19119970987820292	0.19785842849463017	2.015625684904258	0.13376680742154673	0.24013428775272433	1.992270568990085	0.21549043544763957	0.45845381152419085	2.055097407557605	0.2624999837236065	0.17094328095106115	0.43266013524700075	0.26371762632970663	0.08892345255558558	0.170261084124546	0.2713355474039074	0.07028811111731323	0.3076420738756281	0.4532634674560282	0.17380400571343674	0.5353019285262166	0.49101958319611433	0.13714748929588594	0.8331008890778433	0.3363003234788475	0.10094288217740986	1.0664544466356687	0.28807540916337043	0.08399262604369898	1.1424256247529416	0.25583659054619134	0.10171961496260098	1.1669939442428694	0.25370086192518604	0.08749859811279938	1.1634507818376014	0.08031224164118062	0.18479530093860902	0.5393667768155634	0.0741929052415505	0.11285619621187613	0.8133023377967037	0.2214237938145962	0.07825696990558301	1.0419096177700011	0.3254968280146759	0.06698680929010334	1.099137571521498	0.3324641944643017	0.07433269207614182	1.1453318733849414	0.2906759500575946	0.13802683304473184	1.1679184944263912
3	0.05	0.3909721177704496	0.20774792996581182	1.10024275112486	0.3756741903634037	0.28895976933253764	1.537086862119038	0.3752309651744303	0.4009842408892768	1.9672542924719816	0.35108468351792255	0.19714751945357833	2.0052628582717222	0.4257604883334378	0.26442908269888127	2.0257072288779083	0.36279701439443557	0.47989177686195544	2.052786921503757	0.15906030981641822	0.2006858908816729	1.1229300452391882	0.18114521023211583	0.27265098000679155	1.556045388026435	0.19789295567037193	0.40960443034112104	1.9774614590339186	0.19042415358578033	0.19855158039415627	2.0159613832609833	0.13375882397830333	0.24025203753876218	1.9923246392413638	0.21621528979606858	0.45836530232194794	2.056165404993971	0.2624995484755544	0.17084152623118332	0.4330341137682114	0.2638967728175352	0.0884399417804881	0.17095103039782625	0.27133880579882824	0.07028953400452428	0.30766649907454763	0.45324141162899334	0.17378813810715776	0.5353016124349955	0.4916891922619028	0.13443818207249753	0.8320955499285333	0.3365487864391717	0.10101133123001177	1.0686243375167044	0.28713854754653384	0.08386962484943031	1.1448954380069085	0.2559483594383464	0.09617483476622891	1.166604197507529	0.25360846542065296	0.08422618021016931	1.1635590971311194	0.08024780735055749	0.18488630312989424	0.5390267887350093	0.07451374954907591	0.11172658193087055	0.8117721866994878	0.22150044743257824	0.07787139126540223	1.0425496023374161	0.32559319296522043	0.06655454975099918	1.10093882289942	0.3308201102737867	0.07727345097959432	1.147981254157982	0.290224831259243	0.1390274062550118	1.1671361709445176
